<?xml version="1.0" standalone="no"?><!DOCTYPE svg PUBLIC "-//W3C//DTD SVG 1.1//EN" "http://www.w3.org/Graphics/SVG/1.1/DTD/svg11.dtd"><svg class="icon" width="200px" height="200.00px" viewBox="0 0 1024 1024" version="1.1" xmlns="http://www.w3.org/2000/svg"><path d="M512 512m-400 0a400 400 0 1 0 800 0 400 400 0 1 0-800 0Z" fill="#FFEFED" /><path d="M512 372m-160 0a160 160 0 1 0 320 0 160 160 0 1 0-320 0Z" fill="#FFB43A" /><path d="M372 592m-160 0a160 160 0 1 0 320 0 160 160 0 1 0-320 0Z" fill="#FE565C" /><path d="M652 592m-160 0a160 160 0 1 0 320 0 160 160 0 1 0-320 0Z" fill="#66BFF6" /></svg>