<?xml version="1.0" standalone="no"?><!DOCTYPE svg PUBLIC "-//W3C//DTD SVG 1.1//EN" "http://www.w3.org/Graphics/SVG/1.1/DTD/svg11.dtd"><svg class="icon" width="200px" height="200.00px" viewBox="0 0 1024 1024" version="1.1" xmlns="http://www.w3.org/2000/svg"><path d="M693.18 609.12l-40.86-24.24-140.21 80.31-221.39-129.04-40.86 24.25 217.3 130.54-0.28 0.16 44.57 26.77 0.27-0.16 0.27 0.16 44.57-26.77-0.18-0.11z" fill="#E77063" /><path d="M693.18 752.5l-40.86-24.25-140.21 80.32-221.39-129.04-40.86 24.24 217.3 130.55-0.28 0.15 44.57 26.78 0.27-0.16 0.27 0.16 44.57-26.78-0.18-0.1zM519.89 596.12L198.2 398.85l266.25-155.29L789.99 426.7z" fill="#E77063" /><path d="M511.99 605.47c-5.17 0-10.13-1.24-13.78-3.43L130.6 381.2c-7.61-4.57-7.61-11.99 0-16.56L498.21 143.8c7.31-4.39 20.26-4.39 27.57 0L893.4 364.64c3.66 2.2 5.71 5.17 5.71 8.28s-2.06 6.08-5.71 8.28L525.78 602.04c-3.66 2.2-8.62 3.43-13.79 3.43zM171.95 372.92L511.99 577.2l340.05-204.28-340.05-204.28-340.04 204.28z" fill="#0C0303" /><path d="M511.99 746.14c-5.17 0-10.13-1.24-13.78-3.43L130.6 521.87c-7.61-4.57-7.61-11.99 0-16.56l117.08-70.33c7.61-4.57 19.95-4.57 27.57 0 7.61 4.57 7.61 11.99 0 16.56l-103.3 62.05 340.04 204.28 340.05-204.28-103.3-62.05c-7.61-4.57-7.61-11.99 0-16.56 7.61-4.57 19.95-4.57 27.57 0l117.08 70.33c3.66 2.2 5.71 5.17 5.71 8.28 0 3.11-2.06 6.08-5.71 8.28L525.78 742.71c-3.66 2.2-8.62 3.43-13.79 3.43z" fill="#0C0303" /><path d="M511.99 886.82c-5.17 0-10.13-1.24-13.78-3.43L130.6 662.55c-7.61-4.57-7.61-11.99 0-16.56l117.08-70.34c7.61-4.57 19.95-4.57 27.57 0 7.61 4.57 7.61 11.99 0 16.56l-103.3 62.06 340.04 204.28 340.05-204.28-103.31-62.06c-7.61-4.57-7.61-11.99 0-16.56 7.61-4.57 19.95-4.57 27.57 0l117.09 70.34c3.66 2.2 5.71 5.17 5.71 8.28s-2.06 6.08-5.71 8.28L525.78 883.39c-3.66 2.19-8.62 3.43-13.79 3.43z" fill="#0C0303" /></svg>